<?xml version="1.0" standalone="no"?><!DOCTYPE svg PUBLIC "-//W3C//DTD SVG 1.1//EN" "http://www.w3.org/Graphics/SVG/1.1/DTD/svg11.dtd"><svg t="1598936033757" class="icon" viewBox="0 0 1024 1024" version="1.1" xmlns="http://www.w3.org/2000/svg" p-id="10373" xmlns:xlink="http://www.w3.org/1999/xlink" width="64" height="64"><defs><style type="text/css"></style></defs><path d="M112.5 401.8c-29.6 0-57.4-11.5-78.4-32.4-21.1-21-32.7-48.9-32.7-78.6 0-30 11.7-58.1 33-79.1s49.4-32.3 79.5-32.1l142.6 1.8-0.7 58.1-142.6-1.8c-14.3-0.4-27.8 5.3-37.9 15.3-10.2 10-15.7 23.5-15.7 37.7 0 14.2 5.6 27.5 15.6 37.5s23.3 15.4 37.4 15.4h0.2l95.2-0.3 0.2 58.1-95.2 0.3c-0.3 0.1-0.4 0.1-0.5 0.1zM912 401.8h-0.3l-95.2-0.3c-16 0-29-13.1-29-29.1s13-29 29.1-29h0.1l95.2 0.3h0.2c14.1 0 27.4-5.5 37.4-15.4 10-10 15.6-23.3 15.6-37.5 0-17.5-8.6-33.9-23.1-43.9-13.2-9.1-16.6-27.1-7.6-40.4 9.1-13.2 27.1-16.6 40.4-7.6 30.4 20.8 48.5 55.1 48.4 91.9 0 29.7-11.6 57.6-32.7 78.6-21.1 20.9-48.9 32.4-78.5 32.4zM768.4 239.5c-15.9 0-28.8-12.8-29-28.7-0.2-16 12.7-29.2 28.7-29.4l93-1.1c16 0.1 29.2 12.6 29.4 28.7 0.2 16-12.7 29.2-28.7 29.4l-93 1.1h-0.4zM670.7 959.6h-317c-110.4 0-200.3-89.8-200.3-200.3 0-72.4 39.5-139.4 103.1-175 14-7.8 31.7-2.8 39.5 11.2 7.8 14 2.8 31.7-11.2 39.5-45.2 25.3-73.3 72.9-73.3 124.2 0 78.4 63.8 142.2 142.2 142.2h317c78.4 0 142.1-63.8 142.1-142.2S749 617 670.7 617H415.9c-16 0-29.1-13-29.1-29.1s13-29.1 29.1-29.1h254.8C781.2 559 871 648.9 871 759.3s-89.8 200.3-200.3 200.3z" fill="#ffffff" p-id="10374"></path><path d="M211.4 768.2l-57.9-5 43.2-496.8c0.3-3.5 0.8-7 1.4-10.5 6.2-35.8 30.2-65.9 64.1-80.6 35.5-15.4 75.9-11.9 108.1 9.4 31 20.4 80.6 44.8 140.9 44.8 61.8 0 113-25.4 145.1-46.7 28.7-19.1 64.1-23.7 97.1-12.7 31.9 10.6 56.5 34.5 67.6 65.6 3.5 9.9 5.8 20.2 6.7 30.8l43.2 496.9-57.9 5-43.2-496.8c-0.5-5.6-1.7-11.1-3.5-16.3-5-14.1-16.4-25-31.2-30-15.9-5.3-32.9-3.1-46.6 6-38.8 25.7-101 56.4-177.2 56.4-74.8 0-135.3-29.6-172.9-54.4-15.7-10.4-35.6-12.1-53-4.5-16.1 7-27 20.5-29.9 37.2-0.3 1.8-0.6 3.7-0.7 5.6l-43.4 496.6z" fill="#ffffff" p-id="10375"></path><path d="M417.1 429.6m-31.7 0a31.7 31.7 0 1 0 63.4 0 31.7 31.7 0 1 0-63.4 0Z" fill="#ffffff" p-id="10376"></path><path d="M594.6 429.6m-31.7 0a31.7 31.7 0 1 0 63.4 0 31.7 31.7 0 1 0-63.4 0Z" fill="#ffffff" p-id="10377"></path></svg>