<?xml version="1.0" standalone="no"?><!DOCTYPE svg PUBLIC "-//W3C//DTD SVG 1.1//EN" "http://www.w3.org/Graphics/SVG/1.1/DTD/svg11.dtd"><svg t="1598940536754" class="icon" viewBox="0 0 1024 1024" version="1.1" xmlns="http://www.w3.org/2000/svg" p-id="28663" xmlns:xlink="http://www.w3.org/1999/xlink" width="64" height="64"><defs><style type="text/css"></style></defs><path d="M85.333333 810.666667V170.666667h251.733334c51.2-4.266667 102.4 17.066667 140.8 55.466666 34.133333 38.4 51.2 89.6 46.933333 140.8 0 132.266667-68.266667 200.533333-209.066667 200.533334H251.733333v247.466666H85.333333V810.666667zM251.733333 290.133333v157.866667h29.866667c42.666667 0 64-25.6 64-76.8s-21.333333-76.8-64-76.8l-29.866667-4.266667z m298.666667 358.4h140.8c0 17.066667 4.266667 34.133333 12.8 46.933334 8.533333 12.8 21.333333 17.066667 34.133333 17.066666 12.8 0 25.6-4.266667 34.133334-12.8 8.533333-8.533333 12.8-17.066667 12.8-29.866666 0-21.333333-21.333333-38.4-59.733334-55.466667-38.4-12.8-76.8-25.6-110.933333-46.933333-42.666667-25.6-64-72.533333-59.733333-119.466667 0-42.666667 17.066667-81.066667 46.933333-106.666667 42.666667-29.866667 93.866667-46.933333 145.066667-42.666666 123.733333 0 183.466667 51.2 183.466666 153.6h-140.8c0-34.133333-12.8-55.466667-42.666666-55.466667-25.6 0-42.666667 12.8-42.666667 38.4 0 21.333333 21.333333 38.4 59.733333 51.2 38.4 8.533333 76.8 25.6 110.933334 42.666667 42.666667 25.6 64 72.533333 59.733333 119.466666 0 42.666667-17.066667 85.333333-51.2 115.2-42.666667 34.133333-93.866667 51.2-145.066667 46.933334-123.733333 0-187.733333-51.2-187.733333-162.133334z" p-id="28664" fill="#ffffff"></path></svg>